<svg width="58" height="75" viewBox="0 0 58 75" fill="none" xmlns="http://www.w3.org/2000/svg">
<circle cx="29" cy="27" r="27" fill="#3F0775"/>
<path d="M18.4953 19.2816C18.4953 19.107 18.6368 18.9655 18.8114 18.9655C18.986 18.9655 19.1275 19.107 19.1275 19.2816V19.5115C19.1275 19.6861 18.986 19.8276 18.8114 19.8276C18.6368 19.8276 18.4953 19.6861 18.4953 19.5115V19.2816ZM15.5082 25.4483C14.8111 25.4483 14.3543 24.7187 14.6589 24.0916L17.3438 18.5631C17.5111 18.2187 17.8604 18 18.2434 18H19.3794C19.7624 18 20.1117 18.2187 20.279 18.5631L22.9739 24.1122C23.2738 24.7298 22.824 25.4483 22.1375 25.4483C21.779 25.4483 21.4525 25.2422 21.2982 24.9187L18.7515 19.5781C18.7304 19.5339 18.7627 19.4828 18.8117 19.4828C18.8605 19.4828 18.8928 19.5336 18.872 19.5778L16.3624 24.9064C16.2066 25.2372 15.8738 25.4483 15.5082 25.4483Z" fill="white"/>
<path d="M33.6654 35.1034C34.1891 35.1034 34.6137 35.528 34.6137 36.0517C34.6137 36.5754 34.1891 37 33.6654 37H24.3236C23.7999 37 23.3754 36.5754 23.3754 36.0517C23.3754 35.528 23.7999 35.1034 24.3236 35.1034H33.6654Z" fill="white"/>
<path d="M38.8725 19.2816C38.8725 19.107 39.014 18.9655 39.1886 18.9655C39.3632 18.9655 39.5047 19.107 39.5047 19.2816V19.5115C39.5047 19.6861 39.3632 19.8276 39.1886 19.8276C39.014 19.8276 38.8725 19.6861 38.8725 19.5115V19.2816ZM35.8854 25.4483C35.1883 25.4483 34.7315 24.7187 35.0361 24.0916L37.721 18.5631C37.8883 18.2187 38.2376 18 38.6206 18H39.7566C40.1396 18 40.4889 18.2187 40.6562 18.5631L43.3511 24.1122C43.6511 24.7298 43.2013 25.4483 42.5147 25.4483C42.1562 25.4483 41.8297 25.2422 41.6754 24.9187L39.1287 19.5781C39.1076 19.5339 39.1399 19.4828 39.1889 19.4828C39.2378 19.4828 39.27 19.5336 39.2492 19.5778L36.7396 24.9064C36.5838 25.2372 36.2511 25.4483 35.8854 25.4483Z" fill="white"/>
<path d="M9.54547 74C9.30849 74 9.24697 73.8496 9.3609 73.5488L12.7652 64.6143C12.87 64.3363 13.0204 64.1973 13.2164 64.1973H14.1734C14.3694 64.1973 14.5198 64.3363 14.6246 64.6143L18.0289 73.5488C18.1428 73.8496 18.0813 74 17.8443 74H17.147C16.9055 74 16.7414 73.8883 16.6548 73.665L15.8004 71.4023H11.5894L10.7349 73.665C10.6483 73.8883 10.4843 74 10.2427 74H9.54547ZM12.0201 70.2812H15.3697L14.3238 67.5469C14.2281 67.2917 14.1324 67.0091 14.0367 66.6992C13.9455 66.3893 13.8362 65.9495 13.7086 65.3799H13.6812C13.5536 65.9495 13.442 66.3893 13.3463 66.6992C13.2551 67.0091 13.1617 67.2917 13.066 67.5469L12.0201 70.2812ZM19.7307 74C19.5257 74 19.4231 73.8975 19.4231 73.6924V67.1299C19.4231 66.9248 19.5257 66.8223 19.7307 66.8223H20.305C20.51 66.8223 20.6126 66.9248 20.6126 67.1299V67.6768H20.6399C20.9361 67.3486 21.2552 67.1048 21.597 66.9453C21.9388 66.7858 22.3649 66.7061 22.8753 66.7061C23.7047 66.7061 24.2994 66.9408 24.6595 67.4102C25.024 67.875 25.2063 68.513 25.2063 69.3242V73.6924C25.2063 73.8975 25.1038 74 24.8987 74H24.3108C24.1057 74 24.0032 73.8975 24.0032 73.6924V69.6523C24.0032 68.7591 23.8551 68.194 23.5589 67.957C23.2626 67.7155 22.8867 67.5947 22.4309 67.5947C21.8385 67.5947 21.3896 67.7725 21.0843 68.1279C20.7789 68.4788 20.6263 69.0827 20.6263 69.9395V73.6924C20.6263 73.8975 20.5237 74 20.3186 74H19.7307ZM27.7217 74C27.5166 74 27.4141 73.8975 27.4141 73.6924V67.1299C27.4141 66.9248 27.5166 66.8223 27.7217 66.8223H28.3096C28.5146 66.8223 28.6172 66.9248 28.6172 67.1299V73.6924C28.6172 73.8975 28.5146 74 28.3096 74H27.7217ZM27.7217 65.5234C27.5166 65.5234 27.4141 65.4209 27.4141 65.2158V64.6279C27.4141 64.4229 27.5166 64.3203 27.7217 64.3203H28.3096C28.5146 64.3203 28.6172 64.4229 28.6172 64.6279V65.2158C28.6172 65.4209 28.5146 65.5234 28.3096 65.5234H27.7217ZM31.1462 74C30.9411 74 30.8386 73.8975 30.8386 73.6924V67.1299C30.8386 66.9248 30.9411 66.8223 31.1462 66.8223H31.7204C31.9255 66.8223 32.028 66.9248 32.028 67.1299V67.6768H32.0554C32.3516 67.3486 32.6729 67.1048 33.0193 66.9453C33.3656 66.7858 33.6983 66.7061 34.0173 66.7061C34.6052 66.7061 35.0564 66.8542 35.3708 67.1504C35.6898 67.4421 35.8949 67.736 35.9861 68.0322H36.0134C36.2641 67.6585 36.5808 67.3441 36.9636 67.0889C37.3464 66.8337 37.7543 66.7061 38.1872 66.7061C38.9118 66.7061 39.4587 66.9408 39.8279 67.4102C40.197 67.875 40.3816 68.513 40.3816 69.3242V73.6924C40.3816 73.8975 40.279 74 40.0739 74H39.4861C39.281 74 39.1784 73.8975 39.1784 73.6924V69.7207C39.1784 68.8275 39.0668 68.251 38.8435 67.9912C38.6202 67.7269 38.2761 67.5947 37.8113 67.5947C37.3555 67.5947 36.975 67.7907 36.6696 68.1826C36.3643 68.57 36.2116 69.1556 36.2116 69.9395V73.6924C36.2116 73.8975 36.1091 74 35.904 74H35.3161C35.1111 74 35.0085 73.8975 35.0085 73.6924V69.7207C35.0085 68.8275 34.8969 68.251 34.6736 67.9912C34.4502 67.7269 34.1062 67.5947 33.6413 67.5947C33.1856 67.5947 32.8051 67.7725 32.4997 68.1279C32.1944 68.4788 32.0417 69.0827 32.0417 69.9395V73.6924C32.0417 73.8975 31.9392 74 31.7341 74H31.1462ZM42.1996 70.4111C42.1996 69.2809 42.4822 68.3809 43.0473 67.7109C43.6124 67.041 44.4213 66.7061 45.4741 66.7061C46.3491 66.7061 47.0737 67.0137 47.6479 67.6289C48.2267 68.2396 48.5161 69.2171 48.5161 70.5615C48.5161 70.7666 48.4226 70.8691 48.2358 70.8691H43.4711C43.5486 71.7487 43.7856 72.3617 44.1821 72.708C44.5786 73.0498 45.0274 73.2207 45.5287 73.2207C46.0574 73.2207 46.463 73.1318 46.7455 72.9541C47.0281 72.7764 47.2355 72.6009 47.3676 72.4277C47.5134 72.2363 47.6547 72.1999 47.7914 72.3184L48.1948 72.667C48.2996 72.7581 48.2996 72.8835 48.1948 73.043C48.1082 73.1751 47.8598 73.387 47.4496 73.6787C47.044 73.9704 46.4037 74.1162 45.5287 74.1162C44.3894 74.1162 43.5486 73.7812 43.0063 73.1113C42.4685 72.4414 42.1996 71.5413 42.1996 70.4111ZM43.4438 69.9805H47.3061C47.2879 69.3424 47.1238 68.7842 46.8139 68.3057C46.504 67.8226 46.0483 67.5811 45.4467 67.5811C44.9181 67.5811 44.4692 67.7588 44.1 68.1143C43.7309 68.4652 43.5121 69.0872 43.4438 69.9805Z" fill="#D9D9D9"/>
</svg>
