<svg width="58" height="75" viewBox="0 0 58 75" fill="none" xmlns="http://www.w3.org/2000/svg">
<circle cx="29" cy="27" r="27" fill="#3F0775"/>
<path d="M29 18.2632V13M29 18.2632C32.4064 18.3211 34.4627 18.2632 35.8182 18.2632C38.5455 18.2632 41.2727 18.9211 42.6364 23.5263C44 28.1316 44 30.7632 44 34.0526C44 37.3421 41.2727 38 38.5455 38C35.8182 38 34.3809 32.7368 29 32.7368C23.6191 32.7368 22.1818 38 19.4545 38C16.7273 38 14 37.3421 14 34.0526C14 30.7632 14 28.1316 15.3636 23.5263C16.7273 18.9211 19.4545 18.2632 22.1818 18.2632C23.5373 18.2632 25.5936 18.3211 29 18.2632ZM18.0909 26.1579H26.2727M22.1818 22.2105V30.1053M37.1818 30.1053C37.5435 30.1053 37.8903 29.9666 38.1461 29.7199C38.4018 29.4731 38.5455 29.1384 38.5455 28.7895C38.5455 28.4405 38.4018 28.1058 38.1461 27.8591C37.8903 27.6123 37.5435 27.4737 37.1818 27.4737C36.8202 27.4737 36.4733 27.6123 36.2176 27.8591C35.9618 28.1058 35.8182 28.4405 35.8182 28.7895C35.8182 29.1384 35.9618 29.4731 36.2176 29.7199C36.4733 29.9666 36.8202 30.1053 37.1818 30.1053ZM31.7273 26.1579C32.0889 26.1579 32.4358 26.0193 32.6915 25.7725C32.9472 25.5258 33.0909 25.1911 33.0909 24.8421C33.0909 24.4931 32.9472 24.1585 32.6915 23.9117C32.4358 23.6649 32.0889 23.5263 31.7273 23.5263C31.3656 23.5263 31.0188 23.6649 30.763 23.9117C30.5073 24.1585 30.3636 24.4931 30.3636 24.8421C30.3636 25.1911 30.5073 25.5258 30.763 25.7725C31.0188 26.0193 31.3656 26.1579 31.7273 26.1579Z" stroke="#EFEFEF" stroke-width="2"/>
<path d="M7.67926 69.0986C7.67926 67.5036 8.09169 66.2549 8.91656 65.3525C9.74143 64.4456 10.8876 63.9922 12.355 63.9922C13.2346 63.9922 13.9524 64.1449 14.5084 64.4502C15.0643 64.751 15.4722 65.1064 15.732 65.5166C15.8915 65.7718 15.8892 65.9564 15.7252 66.0703L15.2125 66.4258C15.0438 66.5443 14.8752 66.4736 14.7066 66.2139C14.5699 66.0088 14.3124 65.765 13.9341 65.4824C13.5559 65.1999 13.0523 65.0586 12.4234 65.0586C11.3069 65.0586 10.4706 65.4141 9.91461 66.125C9.35862 66.8314 9.08063 67.8226 9.08063 69.0986C9.08063 70.3747 9.35178 71.3682 9.8941 72.0791C10.4364 72.7855 11.3023 73.1387 12.4918 73.1387C13.0842 73.1387 13.5992 73.068 14.0367 72.9268C14.4787 72.7809 14.7886 72.5804 14.9664 72.3252V70.5137H12.9361C12.6854 70.5137 12.5601 70.4111 12.5601 70.2061V69.7002C12.5601 69.4951 12.6854 69.3926 12.9361 69.3926H15.9029C16.1535 69.3926 16.2789 69.4951 16.2789 69.7002V72.9268C15.7229 73.3324 15.1669 73.6468 14.6109 73.8701C14.0549 74.0934 13.3257 74.2051 12.4234 74.2051C10.9195 74.2051 9.75283 73.7539 8.9234 72.8516C8.09397 71.9447 7.67926 70.6937 7.67926 69.0986ZM17.9602 72.0859C17.9602 71.2747 18.3385 70.68 19.095 70.3018C19.8561 69.9235 20.9908 69.7025 22.4993 69.6387V69.1738C22.4993 68.7454 22.4013 68.3763 22.2054 68.0664C22.0139 67.752 21.6311 67.5947 21.0569 67.5947C20.6923 67.5947 20.4007 67.6312 20.1819 67.7041C19.9632 67.7725 19.7626 67.8659 19.5804 67.9844C19.4026 68.0983 19.2317 68.2464 19.0677 68.4287C18.9446 68.5654 18.8284 68.5723 18.719 68.4492L18.3636 68.0391C18.2633 67.9251 18.2975 67.7884 18.4661 67.6289C18.7076 67.401 18.9423 67.2301 19.1702 67.1162C19.3981 67.0023 19.6806 66.9066 20.0179 66.8291C20.3596 66.7471 20.706 66.7061 21.0569 66.7061C22.0094 66.7061 22.6884 66.9521 23.094 67.4443C23.4996 67.932 23.7024 68.6019 23.7024 69.4541V73.6924C23.7024 73.8975 23.5999 74 23.3948 74H22.7796C22.6018 74 22.513 73.8975 22.513 73.6924V73.3574H22.4993C22.1393 73.64 21.7861 73.8382 21.4397 73.9521C21.0979 74.0615 20.7151 74.1162 20.2913 74.1162C19.5439 74.1162 18.9674 73.9385 18.5618 73.583C18.1608 73.223 17.9602 72.724 17.9602 72.0859ZM19.2044 72.1133C19.2044 72.3958 19.2636 72.6237 19.3821 72.7969C19.5006 72.9655 19.6647 73.0749 19.8743 73.125C20.0839 73.1706 20.3027 73.1934 20.5305 73.1934C20.8815 73.1934 21.2141 73.1592 21.5286 73.0908C21.843 73.0225 22.1666 72.8424 22.4993 72.5508V70.5342C21.5787 70.6025 20.9225 70.6868 20.5305 70.7871C20.1386 70.8828 19.8196 71.0514 19.5735 71.293C19.3274 71.5299 19.2044 71.8034 19.2044 72.1133ZM26.2383 74C26.0332 74 25.9307 73.8975 25.9307 73.6924V67.1299C25.9307 66.9248 26.0332 66.8223 26.2383 66.8223H26.8125C27.0176 66.8223 27.1201 66.9248 27.1201 67.1299V67.6768H27.1475C27.4437 67.3486 27.765 67.1048 28.1113 66.9453C28.4577 66.7858 28.7904 66.7061 29.1094 66.7061C29.6973 66.7061 30.1484 66.8542 30.4629 67.1504C30.7819 67.4421 30.987 67.736 31.0781 68.0322H31.1055C31.3561 67.6585 31.6729 67.3441 32.0557 67.0889C32.4385 66.8337 32.8464 66.7061 33.2793 66.7061C34.0039 66.7061 34.5508 66.9408 34.9199 67.4102C35.2891 67.875 35.4736 68.513 35.4736 69.3242V73.6924C35.4736 73.8975 35.3711 74 35.166 74H34.5781C34.373 74 34.2705 73.8975 34.2705 73.6924V69.7207C34.2705 68.8275 34.1589 68.251 33.9355 67.9912C33.7122 67.7269 33.3682 67.5947 32.9033 67.5947C32.4476 67.5947 32.0671 67.7907 31.7617 68.1826C31.4564 68.57 31.3037 69.1556 31.3037 69.9395V73.6924C31.3037 73.8975 31.2012 74 30.9961 74H30.4082C30.2031 74 30.1006 73.8975 30.1006 73.6924V69.7207C30.1006 68.8275 29.9889 68.251 29.7656 67.9912C29.5423 67.7269 29.1982 67.5947 28.7334 67.5947C28.2777 67.5947 27.8971 67.7725 27.5918 68.1279C27.2865 68.4788 27.1338 69.0827 27.1338 69.9395V73.6924C27.1338 73.8975 27.0312 74 26.8262 74H26.2383ZM37.2917 70.4111C37.2917 69.2809 37.5743 68.3809 38.1394 67.7109C38.7045 67.041 39.5134 66.7061 40.5661 66.7061C41.4411 66.7061 42.1657 67.0137 42.74 67.6289C43.3187 68.2396 43.6081 69.2171 43.6081 70.5615C43.6081 70.7666 43.5147 70.8691 43.3279 70.8691H38.5632C38.6407 71.7487 38.8777 72.3617 39.2741 72.708C39.6706 73.0498 40.1195 73.2207 40.6208 73.2207C41.1495 73.2207 41.5551 73.1318 41.8376 72.9541C42.1202 72.7764 42.3275 72.6009 42.4597 72.4277C42.6055 72.2363 42.7468 72.1999 42.8835 72.3184L43.2868 72.667C43.3917 72.7581 43.3917 72.8835 43.2868 73.043C43.2002 73.1751 42.9519 73.387 42.5417 73.6787C42.1361 73.9704 41.4958 74.1162 40.6208 74.1162C39.4815 74.1162 38.6407 73.7812 38.0984 73.1113C37.5606 72.4414 37.2917 71.5413 37.2917 70.4111ZM38.5359 69.9805H42.3982C42.3799 69.3424 42.2159 68.7842 41.906 68.3057C41.5961 67.8226 41.1404 67.5811 40.5388 67.5811C40.0101 67.5811 39.5612 67.7588 39.1921 68.1143C38.823 68.4652 38.6042 69.0872 38.5359 69.9805ZM45.187 73.3301C45.0457 73.1979 45.0161 73.0749 45.0981 72.9609L45.4057 72.5303C45.506 72.3936 45.6541 72.4004 45.85 72.5508C46.1189 72.7559 46.4174 72.9199 46.7455 73.043C47.0782 73.166 47.4565 73.2275 47.8803 73.2275C48.131 73.2275 48.3543 73.1979 48.5502 73.1387C48.7462 73.0749 48.9171 72.9587 49.0629 72.79C49.2133 72.6214 49.2885 72.3958 49.2885 72.1133C49.2885 71.9492 49.2521 71.7943 49.1791 71.6484C49.1108 71.5026 49.0014 71.3864 48.851 71.2998C48.7052 71.2087 48.5616 71.138 48.4203 71.0879C48.1879 71.0013 47.9555 70.9307 47.7231 70.876C47.4952 70.8167 47.1944 70.7279 46.8207 70.6094C46.5701 70.5319 46.3331 70.4225 46.1098 70.2812C45.8865 70.1354 45.6905 69.9395 45.5219 69.6934C45.3578 69.4473 45.2758 69.1077 45.2758 68.6748C45.2758 68.2327 45.4103 67.8522 45.6791 67.5332C45.948 67.2142 46.2853 66.9977 46.6909 66.8838C47.0965 66.7653 47.4907 66.7061 47.8735 66.7061C48.4386 66.7061 48.892 66.7721 49.2338 66.9043C49.5802 67.0319 49.8787 67.1846 50.1293 67.3623C50.2752 67.4671 50.2957 67.5879 50.1909 67.7246L49.8832 68.1348C49.7875 68.2669 49.6394 68.2624 49.4389 68.1211C49.2703 68.0026 49.031 67.891 48.7211 67.7861C48.4112 67.6813 48.1401 67.6289 47.9077 67.6289C47.6205 67.6289 47.3745 67.6608 47.1694 67.7246C46.9643 67.7884 46.798 67.8978 46.6703 68.0527C46.5427 68.2077 46.4789 68.39 46.4789 68.5996C46.4789 68.7591 46.504 68.9027 46.5541 69.0303C46.6043 69.1533 46.6977 69.2673 46.8344 69.3721C46.9711 69.4769 47.1625 69.5612 47.4086 69.625C47.7914 69.7253 48.1401 69.8164 48.4545 69.8984C48.7735 69.9805 49.0606 70.0807 49.3159 70.1992C49.6485 70.3542 49.9037 70.5251 50.0815 70.7119C50.2638 70.8988 50.3891 71.1016 50.4575 71.3203C50.5258 71.5345 50.56 71.7738 50.56 72.0381C50.56 72.5257 50.4142 72.9382 50.1225 73.2754C49.8354 73.6126 49.5141 73.8382 49.1586 73.9521C48.8032 74.0615 48.3748 74.1162 47.8735 74.1162C47.1944 74.1162 46.6111 74.0205 46.1235 73.8291C45.6404 73.6331 45.3282 73.4668 45.187 73.3301Z" fill="#D9D9D9"/>
</svg>
