<svg width="58" height="75" viewBox="0 0 58 75" fill="none" xmlns="http://www.w3.org/2000/svg">
<circle cx="29" cy="27" r="27" fill="#3F0775"/>
<path d="M15 18C15 17.4477 15.4477 17 16 17H42C42.5523 17 43 17.4477 43 18V35C43 35.5523 42.5523 36 42 36H16C15.4477 36 15 35.5523 15 35V18Z" stroke="#EFEFEF" stroke-width="2"/>
<path d="M8.12031 74C7.89245 74 7.77851 73.8747 7.77851 73.624V64.5732C7.77851 64.3226 7.89245 64.1973 8.12031 64.1973H9.57637C9.74954 64.1973 9.87943 64.334 9.96601 64.6074L11.9211 70.7393C12.1216 71.3682 12.2401 71.7487 12.2766 71.8809C12.313 72.0085 12.3654 72.2454 12.4338 72.5918H12.4748C12.5432 72.2454 12.5956 72.0085 12.632 71.8809C12.6685 71.7487 12.787 71.3682 12.9875 70.7393L14.9426 64.6074C15.0292 64.334 15.159 64.1973 15.3322 64.1973H16.7883C17.0161 64.1973 17.1301 64.3226 17.1301 64.5732V73.624C17.1301 73.8747 17.0161 74 16.7883 74H16.1594C15.9315 74 15.8176 73.8747 15.8176 73.624V66.4531C15.8176 66.2708 15.8221 66.0885 15.8312 65.9062H15.8039L13.2814 73.583C13.1903 73.861 13.0399 74 12.8303 74H12.0783C11.8687 74 11.7183 73.861 11.6271 73.583L9.10469 65.9062H9.07734C9.08646 66.0885 9.09101 66.2708 9.09101 66.4531V73.624C9.09101 73.8747 8.97708 74 8.74922 74H8.12031ZM19.1532 70.4111C19.1532 69.3402 19.4358 68.4561 20.0009 67.7588C20.5706 67.057 21.4023 66.7061 22.496 66.7061C23.5898 66.7061 24.4192 67.057 24.9843 67.7588C25.554 68.4561 25.8388 69.3402 25.8388 70.4111C25.8388 71.4821 25.554 72.3685 24.9843 73.0703C24.4192 73.7676 23.5898 74.1162 22.496 74.1162C21.4023 74.1162 20.5706 73.7676 20.0009 73.0703C19.4358 72.3685 19.1532 71.4821 19.1532 70.4111ZM20.4247 70.4111C20.4247 71.3682 20.6139 72.0768 20.9921 72.5371C21.3704 72.9974 21.8717 73.2275 22.496 73.2275C23.1204 73.2275 23.6217 72.9974 23.9999 72.5371C24.3782 72.0768 24.5673 71.3682 24.5673 70.4111C24.5673 69.4541 24.3782 68.7454 23.9999 68.2852C23.6217 67.8249 23.1204 67.5947 22.496 67.5947C21.8717 67.5947 21.3704 67.8249 20.9921 68.2852C20.6139 68.7454 20.4247 69.4541 20.4247 70.4111ZM27.1237 67.1572C27.0462 66.9339 27.1077 66.8223 27.3082 66.8223H28.0534C28.1992 66.8223 28.3017 66.9111 28.361 67.0889L29.8102 71.6006C29.9287 71.9697 30.0084 72.2249 30.0495 72.3662C30.095 72.5029 30.136 72.6738 30.1725 72.8789H30.1998C30.2363 72.6738 30.275 72.5029 30.3161 72.3662C30.3616 72.2249 30.4437 71.9697 30.5621 71.6006L32.0114 67.0889C32.0706 66.9111 32.1731 66.8223 32.319 66.8223H33.0641C33.2646 66.8223 33.3261 66.9339 33.2487 67.1572L31.0065 73.583C30.9108 73.861 30.7877 74 30.6373 74H29.735C29.5846 74 29.4616 73.861 29.3659 73.583L27.1237 67.1572ZM34.9984 74C34.7933 74 34.6908 73.8975 34.6908 73.6924V67.1299C34.6908 66.9248 34.7933 66.8223 34.9984 66.8223H35.5863C35.7914 66.8223 35.8939 66.9248 35.8939 67.1299V73.6924C35.8939 73.8975 35.7914 74 35.5863 74H34.9984ZM34.9984 65.5234C34.7933 65.5234 34.6908 65.4209 34.6908 65.2158V64.6279C34.6908 64.4229 34.7933 64.3203 34.9984 64.3203H35.5863C35.7914 64.3203 35.8939 64.4229 35.8939 64.6279V65.2158C35.8939 65.4209 35.7914 65.5234 35.5863 65.5234H34.9984ZM37.7257 70.4111C37.7257 69.2809 38.0082 68.3809 38.5733 67.7109C39.1384 67.041 39.9473 66.7061 41.0001 66.7061C41.8751 66.7061 42.5997 67.0137 43.1739 67.6289C43.7527 68.2396 44.0421 69.2171 44.0421 70.5615C44.0421 70.7666 43.9486 70.8691 43.7618 70.8691H38.9971C39.0746 71.7487 39.3116 72.3617 39.7081 72.708C40.1046 73.0498 40.5535 73.2207 41.0548 73.2207C41.5834 73.2207 41.989 73.1318 42.2716 72.9541C42.5541 72.7764 42.7615 72.6009 42.8936 72.4277C43.0395 72.2363 43.1807 72.1999 43.3175 72.3184L43.7208 72.667C43.8256 72.7581 43.8256 72.8835 43.7208 73.043C43.6342 73.1751 43.3858 73.387 42.9757 73.6787C42.5701 73.9704 41.9298 74.1162 41.0548 74.1162C39.9154 74.1162 39.0746 73.7812 38.5323 73.1113C37.9945 72.4414 37.7257 71.5413 37.7257 70.4111ZM38.9698 69.9805H42.8321C42.8139 69.3424 42.6498 68.7842 42.3399 68.3057C42.03 67.8226 41.5743 67.5811 40.9727 67.5811C40.4441 67.5811 39.9952 67.7588 39.6261 68.1143C39.2569 68.4652 39.0382 69.0872 38.9698 69.9805ZM45.6209 73.3301C45.4796 73.1979 45.45 73.0749 45.532 72.9609L45.8396 72.5303C45.9399 72.3936 46.088 72.4004 46.284 72.5508C46.5529 72.7559 46.8514 72.9199 47.1795 73.043C47.5122 73.166 47.8904 73.2275 48.3143 73.2275C48.5649 73.2275 48.7882 73.1979 48.9842 73.1387C49.1801 73.0749 49.351 72.9587 49.4969 72.79C49.6473 72.6214 49.7225 72.3958 49.7225 72.1133C49.7225 71.9492 49.686 71.7943 49.6131 71.6484C49.5447 71.5026 49.4354 71.3864 49.285 71.2998C49.1391 71.2087 48.9956 71.138 48.8543 71.0879C48.6219 71.0013 48.3895 70.9307 48.157 70.876C47.9292 70.8167 47.6284 70.7279 47.2547 70.6094C47.004 70.5319 46.7671 70.4225 46.5438 70.2812C46.3204 70.1354 46.1245 69.9395 45.9559 69.6934C45.7918 69.4473 45.7098 69.1077 45.7098 68.6748C45.7098 68.2327 45.8442 67.8522 46.1131 67.5332C46.382 67.2142 46.7192 66.9977 47.1248 66.8838C47.5304 66.7653 47.9246 66.7061 48.3074 66.7061C48.8725 66.7061 49.326 66.7721 49.6678 66.9043C50.0141 67.0319 50.3126 67.1846 50.5633 67.3623C50.7091 67.4671 50.7296 67.5879 50.6248 67.7246L50.3172 68.1348C50.2215 68.2669 50.0734 68.2624 49.8729 68.1211C49.7042 68.0026 49.465 67.891 49.1551 67.7861C48.8452 67.6813 48.574 67.6289 48.3416 67.6289C48.0545 67.6289 47.8084 67.6608 47.6033 67.7246C47.3982 67.7884 47.2319 67.8978 47.1043 68.0527C46.9767 68.2077 46.9129 68.39 46.9129 68.5996C46.9129 68.7591 46.938 68.9027 46.9881 69.0303C47.0382 69.1533 47.1316 69.2673 47.2684 69.3721C47.4051 69.4769 47.5965 69.5612 47.8426 69.625C48.2254 69.7253 48.574 69.8164 48.8885 69.8984C49.2075 69.9805 49.4946 70.0807 49.7498 70.1992C50.0825 70.3542 50.3377 70.5251 50.5154 70.7119C50.6977 70.8988 50.823 71.1016 50.8914 71.3203C50.9598 71.5345 50.9939 71.7738 50.9939 72.0381C50.9939 72.5257 50.8481 72.9382 50.5564 73.2754C50.2693 73.6126 49.948 73.8382 49.5926 73.9521C49.2371 74.0615 48.8087 74.1162 48.3074 74.1162C47.6284 74.1162 47.0451 74.0205 46.5574 73.8291C46.0743 73.6331 45.7622 73.4668 45.6209 73.3301Z" fill="#D9D9D9"/>
</svg>
